<svg width="106" height="113" viewBox="0 0 106 113" fill="none" xmlns="http://www.w3.org/2000/svg">
<g clip-path="url(#clip0_20_2336)">
<path d="M92.4382 8.67498C90.4131 6.43414 88.0075 4.37716 85.0618 3.3659C78.4955 1.11356 71.3768 4.57251 65.6083 8.27278C61.5457 10.8814 57.25 5.64122 52.6352 6.91678C48.0203 5.64122 43.7369 10.8814 39.662 8.27278C33.9058 4.584 26.7871 1.11356 20.2208 3.3659C17.2751 4.37716 14.8818 6.43414 12.8444 8.67498C2.62055 19.9367 0.362225 36.0937 3.34469 50.596C6.33943 65.1098 13.9613 78.371 21.7918 91.207C24.1115 95.0107 26.5539 98.9064 30.3219 101.48C34.0899 104.066 39.5639 104.985 43.4055 102.492C44.9151 101.515 46.0566 100.101 47.5785 99.1592C48.5235 98.5846 49.5913 98.2169 50.7082 98.056V98.3778C51.3342 98.1709 51.9847 98.0445 52.6352 97.9985C53.2857 98.056 53.9239 98.1709 54.5498 98.3778V98.056C55.679 98.2169 56.7591 98.5731 57.6919 99.1592C59.226 100.101 60.3675 101.515 61.8648 102.492C65.7065 104.985 71.1805 104.066 74.9484 101.48C78.7164 98.8949 81.1711 94.9992 83.4785 91.207C91.2968 78.371 98.9309 65.1098 101.926 50.596C104.92 36.0823 102.65 19.9252 92.4259 8.67498H92.4382Z" fill="white"/>
<path d="M93.8375 7.36485C91.346 4.66435 88.3512 2.23964 84.5955 1.28584C80.8398 0.332045 76.6668 0.952587 73.0216 2.32008C71.1928 3.00957 69.4377 3.83696 67.744 4.77926C66.4062 5.52621 64.7861 7.05458 63.2028 7.14651C61.9386 7.22695 60.6253 6.59492 59.4962 6.15824C58.1706 5.65262 56.8696 5.14699 55.4459 4.96313C54.599 4.84821 53.7276 4.79075 52.8685 4.96313C51.9111 5.15848 53.3594 5.14699 52.3898 4.96313C52.1198 4.90567 51.7761 4.87119 51.4816 4.8597C49.886 4.77926 48.3273 5.20445 46.8544 5.74455C45.578 6.2157 44.2893 6.84773 42.9146 7.07756C41.2577 7.35336 40.2145 6.36509 38.8889 5.57218C32.384 1.67655 24.0011 -1.32273 16.7966 2.88316C10.6966 6.44553 6.53591 13.0646 3.93393 19.1666C1.23375 25.487 0.0923136 32.3934 0.141408 39.1734C0.251869 54.503 6.6832 68.9824 14.2437 82.3125C16.4406 86.1737 18.7112 90.0004 21.0678 93.7811C23.2156 97.217 25.6581 100.55 29.1069 102.951C32.3349 105.192 36.5815 106.318 40.5704 105.583C42.6446 105.204 44.3997 104.227 45.9707 102.928C47.6522 101.538 48.9287 100.251 51.2361 99.8601L48.72 98.0674V98.3892C48.7937 99.5498 49.9719 100.573 51.2484 100.182C52.2916 99.8716 52.9544 99.8716 54.0099 100.182C55.2986 100.561 56.4646 99.5498 56.526 98.3892V98.0674C55.7037 98.6649 54.8691 99.2625 54.0222 99.8601C56.3296 100.251 57.606 101.538 59.2875 102.928C60.969 104.319 62.7487 105.273 64.9088 105.617C69.045 106.284 73.2671 105.031 76.5441 102.664C80.0666 100.101 82.4967 96.539 84.6937 92.9652C87.1361 88.9891 89.5295 84.99 91.8001 80.9221C100.269 65.7533 107.007 48.9182 104.638 31.52C103.435 22.6601 99.9988 14.2368 93.8252 7.36485C92.1806 5.52621 89.3822 8.16926 91.0146 9.99641C101.226 21.373 102.908 37.5416 99.6674 51.6417C97.7896 59.8121 94.4634 67.6034 90.5236 75.0844C88.4617 79.003 86.2402 82.8296 83.9573 86.6333C81.9322 90.0004 80.0175 93.5627 77.4401 96.608C74.8626 99.6532 71.0333 102.354 66.578 102.089C64.2215 101.952 62.6627 100.791 61.0058 99.3429C59.3489 97.895 57.4465 96.6769 55.0777 96.2747C53.7767 96.0564 52.623 96.7803 52.5616 98.0674V98.3892C53.384 97.7916 54.2186 97.194 55.0654 96.5965C53.384 96.0909 51.862 96.0909 50.1928 96.5965L52.7089 98.3892V98.0674C52.6353 96.7803 51.4816 96.0564 50.1806 96.2747C48.45 96.562 46.9404 97.24 45.5657 98.2627C44.1911 99.2855 43.0251 100.699 41.405 101.434C38.4348 102.79 34.765 101.952 32.0894 100.366C29.1437 98.6305 27.0572 95.838 25.2776 93.1031C23.3015 90.0923 21.4851 86.9781 19.6686 83.8754C12.3536 71.4301 5.55403 58.0309 4.31441 43.678C3.25888 31.3591 6.11861 17.7532 15.5692 8.60594C18.0485 6.20421 21.0309 4.49197 24.6885 4.51496C28.346 4.53794 32.0771 6.10079 35.2682 7.85899C38.1771 9.45631 40.3863 11.3639 43.9702 10.6629C46.4249 10.1803 48.8918 8.30716 51.4693 8.58295C52.9667 8.74383 54.3658 8.43356 55.8632 8.84726C57.3606 9.26095 58.6247 9.88149 60.0362 10.3297C61.4477 10.7778 62.945 11.0192 64.4179 10.7319C66.2466 10.3756 67.7194 9.13455 69.2782 8.2497C72.8007 6.23868 76.8264 4.38855 81.0608 4.51496C85.2951 4.64136 88.4003 7.14651 91.0146 9.98492C92.6838 11.8006 95.4944 9.15753 93.8252 7.35336L93.8375 7.36485Z" fill="#27D9E8"/>
<path d="M57.2652 64.1312C56.8847 64.9524 56.3446 65.4059 55.4978 65.8226C54.7 66.2148 53.6199 66.4232 52.6749 66.4477C51.7298 66.4722 50.6865 66.3129 49.8888 65.9697C48.9683 65.5652 48.4159 65.0995 48.0232 64.2538C47.79 63.7513 47.0781 63.6287 46.624 63.8861C46.1085 64.1802 46.0226 64.7808 46.2558 65.2833C47.3604 67.6366 50.2447 68.5313 52.6749 68.4945C55.105 68.4578 57.9402 67.514 59.0325 65.173C59.2657 64.6705 59.1676 64.0699 58.6643 63.7758C58.2225 63.5184 57.4984 63.6409 57.2652 64.1435L57.2652 64.1312Z" fill="#27D9E8"/>
<path d="M43.0005 40.133C43.0005 42.6578 40.9508 44.7046 38.4224 44.7046C35.8941 44.7046 33.8567 42.6578 33.8567 40.133C33.8567 37.6081 35.9064 35.5613 38.4224 35.5613C40.9385 35.5613 43.0005 37.6081 43.0005 40.133Z" fill="#27D9E8"/>
<path d="M66.848 44.6923C69.3696 44.6923 71.4137 42.651 71.4137 40.1329C71.4137 37.6148 69.3696 35.5735 66.848 35.5735C64.3264 35.5735 62.2822 37.6148 62.2822 40.1329C62.2822 42.651 64.3264 44.6923 66.848 44.6923Z" fill="#27D9E8"/>
<path d="M61.3372 28.5259C65.7802 30.536 70.5301 31.6881 75.4027 31.9087C76.6791 31.97 76.6791 29.9844 75.4027 29.9231C70.8983 29.727 66.4553 28.673 62.3436 26.81C61.8527 26.5894 61.2758 26.6752 60.9813 27.1654C60.7235 27.5944 60.8463 28.3053 61.3372 28.5259Z" fill="#27D9E8"/>
</g>
<defs>
<clipPath id="clip0_20_2336">
<rect width="105" height="112" fill="white" transform="translate(0.141357 0.801758)"/>
</clipPath>
</defs>
</svg>
