<svg width="154" height="123" viewBox="0 0 154 123" fill="none" xmlns="http://www.w3.org/2000/svg">
<g clip-path="url(#clip0_20_2345)">
<path d="M117.297 18.675C115.272 16.4341 112.866 14.3772 109.92 13.3659C103.354 11.1136 96.2355 14.5725 90.4669 18.2728C86.4044 20.8814 82.1087 15.6412 77.4938 16.9168C72.879 15.6412 68.5955 20.8814 64.5207 18.2728C58.7644 14.584 51.6458 11.1136 45.0794 13.3659C42.1338 14.3772 39.7404 16.4341 37.703 18.675C27.4792 29.9367 25.2209 46.0937 28.2033 60.596C31.1981 75.1098 38.8199 88.371 46.6504 101.207C48.9701 105.011 51.4126 108.906 55.1805 111.48C58.9485 114.066 64.4225 114.985 68.2641 112.492C69.7738 111.515 70.9152 110.101 72.4371 109.159C73.3822 108.585 74.45 108.217 75.5669 108.056V108.378C76.1928 108.171 76.8433 108.044 77.4938 107.999C78.1443 108.056 78.7825 108.171 79.4085 108.378V108.056C80.5376 108.217 81.6177 108.573 82.5505 109.159C84.0847 110.101 85.2261 111.515 86.7235 112.492C90.5651 114.985 96.0391 114.066 99.8071 111.48C103.575 108.895 106.03 104.999 108.337 101.207C116.155 88.371 123.79 75.1098 126.784 60.596C129.779 46.0822 127.508 29.9252 117.285 18.675H117.297Z" fill="white"/>
<path d="M118.696 17.3649C116.205 14.6643 113.21 12.2396 109.454 11.2858C105.698 10.332 101.525 10.9526 97.8802 12.3201C96.0515 13.0096 94.2964 13.837 92.6026 14.7793C91.2648 15.5262 89.6447 17.0546 88.0614 17.1465C86.7972 17.227 85.484 16.5949 84.3548 16.1582C83.0293 15.6526 81.7283 15.147 80.3046 14.9631C79.4577 14.8482 78.5863 14.7908 77.7271 14.9631C76.7698 15.1585 78.2181 15.147 77.2484 14.9631C76.9784 14.9057 76.6348 14.8712 76.3402 14.8597C74.7446 14.7793 73.1859 15.2044 71.7131 15.7445C70.4366 16.2157 69.1479 16.8477 67.7733 17.0776C66.1164 17.3534 65.0731 16.3651 63.7476 15.5722C57.2426 11.6766 48.8598 8.67727 41.6552 12.8832C35.5553 16.4455 31.3946 23.0646 28.7926 29.1666C26.0924 35.487 24.951 42.3934 25.0001 49.1734C25.1105 64.503 31.5418 78.9824 39.1023 92.3125C41.2993 96.1737 43.5699 100 45.9264 103.781C48.0743 107.217 50.5167 110.55 53.9656 112.951C57.1935 115.192 61.4401 116.318 65.429 115.583C67.5033 115.204 69.2584 114.227 70.8294 112.928C72.5109 111.538 73.7873 110.251 76.0947 109.86L73.5787 108.067V108.389C73.6523 109.55 74.8306 110.573 76.107 110.182C77.1503 109.872 77.813 109.872 78.8685 110.182C80.1573 110.561 81.3232 109.55 81.3846 108.389V108.067C80.5623 108.665 79.7277 109.263 78.8808 109.86C81.1882 110.251 82.4647 111.538 84.1462 112.928C85.8276 114.319 87.6073 115.273 89.7674 115.617C93.9036 116.284 98.1257 115.031 101.403 112.664C104.925 110.101 107.355 106.539 109.552 102.965C111.995 98.9891 114.388 94.99 116.659 90.9221C125.127 75.7533 131.866 58.9182 129.497 41.52C128.294 32.6601 124.857 24.2368 118.684 17.3649C117.039 15.5262 114.241 18.1693 115.873 19.9964C126.085 31.373 127.766 47.5416 124.526 61.6417C122.648 69.8121 119.322 77.6034 115.382 85.0844C113.32 89.003 111.099 92.8296 108.816 96.6333C106.791 100 104.876 103.563 102.299 106.608C99.7213 109.653 95.8919 112.354 91.4366 112.089C89.0801 111.952 87.5214 110.791 85.8645 109.343C84.2075 107.895 82.3051 106.677 79.9363 106.275C78.6353 106.056 77.4816 106.78 77.4203 108.067V108.389C78.2426 107.792 79.0772 107.194 79.9241 106.596C78.2426 106.091 76.7207 106.091 75.0515 106.596L77.5676 108.389V108.067C77.4939 106.78 76.3402 106.056 75.0392 106.275C73.3086 106.562 71.799 107.24 70.4244 108.263C69.0497 109.285 67.8837 110.699 66.2636 111.434C63.2934 112.79 59.6237 111.952 56.948 110.366C54.0024 108.63 51.9159 105.838 50.1362 103.103C48.1602 100.092 46.3437 96.9781 44.5272 93.8754C37.2122 81.4301 30.4127 68.0309 29.173 53.678C28.1175 41.3591 30.9773 27.7532 40.4279 18.6059C42.9071 16.2042 45.8896 14.492 49.5471 14.515C53.2046 14.5379 56.9358 16.1008 60.1269 17.859C63.0357 19.4563 65.2449 21.3639 68.8288 20.6629C71.2835 20.1803 73.7505 18.3072 76.3279 18.583C77.8253 18.7438 79.2245 18.4336 80.7219 18.8473C82.2192 19.261 83.4834 19.8815 84.8948 20.3297C86.3063 20.7778 87.8037 21.0192 89.2765 20.7319C91.1052 20.3756 92.5781 19.1345 94.1368 18.2497C97.6593 16.2387 101.685 14.3886 105.919 14.515C110.154 14.6414 113.259 17.1465 115.873 19.9849C117.542 21.8006 120.353 19.1575 118.684 17.3534L118.696 17.3649Z" fill="#27D9E8"/>
<path d="M72.8789 62.0094C73.2594 61.1882 73.7994 60.7347 74.6463 60.318C75.4441 59.9258 76.5241 59.7175 77.4692 59.6929C78.4142 59.6684 79.4575 59.8278 80.2553 60.1709C81.1758 60.5754 81.7281 61.0412 82.1209 61.8869C82.354 62.3894 83.0659 62.5119 83.52 62.2545C84.0355 61.9604 84.1214 61.3598 83.8882 60.8573C82.7836 58.5041 79.8993 57.6093 77.4692 57.6461C75.039 57.6829 72.2038 58.6266 71.1115 60.9676C70.8783 61.4701 70.9765 62.0707 71.4797 62.3649C71.9216 62.6222 72.6457 62.4997 72.8789 61.9972V62.0094Z" fill="#27D9E8"/>
<path d="M67.8591 50.133C67.8591 52.6578 65.8094 54.7046 63.2811 54.7046C60.7527 54.7046 58.7153 52.6578 58.7153 50.133C58.7153 47.6081 60.765 45.5613 63.2811 45.5613C65.7972 45.5613 67.8591 47.6081 67.8591 50.133Z" fill="#27D9E8"/>
<path d="M91.7066 54.6923C94.2282 54.6923 96.2724 52.651 96.2724 50.1329C96.2724 47.6148 94.2282 45.5735 91.7066 45.5735C89.185 45.5735 87.1409 47.6148 87.1409 50.1329C87.1409 52.651 89.185 54.6923 91.7066 54.6923Z" fill="#27D9E8"/>
<path d="M86.1959 38.5259C90.6389 40.536 95.3887 41.6881 100.261 41.9087C101.538 41.97 101.538 39.9844 100.261 39.9231C95.7569 39.727 91.3139 38.673 87.2023 36.81C86.7113 36.5894 86.1345 36.6752 85.8399 37.1654C85.5822 37.5944 85.7049 38.3053 86.1959 38.5259Z" fill="#27D9E8"/>
</g>
<path d="M13.5213 33.2513C13.5213 22.115 9.43313 16.7667 0.913086 16.7667C9.43313 16.7667 13.5213 11.4185 13.5213 0.286865C13.5213 11.4232 17.6131 16.7667 26.1259 16.7667C17.6131 16.7667 13.5213 22.115 13.5213 33.2513Z" fill="#27D9E8"/>
<path d="M140.657 109.705C140.657 98.5686 136.568 93.2203 128.048 93.2203C136.568 93.2203 140.657 87.8721 140.657 76.7405C140.657 87.8768 144.748 93.2203 153.261 93.2203C144.748 93.2203 140.657 98.5686 140.657 109.705Z" fill="#27D9E8"/>
<defs>
<clipPath id="clip0_20_2345">
<rect width="105" height="112" fill="white" transform="translate(25 10.8018)"/>
</clipPath>
</defs>
</svg>
