<svg width="105" height="113" viewBox="0 0 105 113" fill="none" xmlns="http://www.w3.org/2000/svg">
<g clip-path="url(#clip0_20_2324)">
<path d="M92.2971 8.67498C90.2719 6.43414 87.8663 4.37716 84.9207 3.3659C78.3544 1.11356 71.2357 4.57251 65.4672 8.27278C61.4046 10.8814 57.1089 5.64122 52.494 6.91678C47.8792 5.64122 43.5957 10.8814 39.5209 8.27278C33.7647 4.584 26.646 1.11356 20.0797 3.3659C17.134 4.37716 14.7407 6.43414 12.7033 8.67498C2.47944 19.9367 0.221111 36.0937 3.20358 50.596C6.19832 65.1098 13.8202 78.371 21.6507 91.207C23.9704 95.0107 26.4128 98.9064 30.1808 101.48C33.9488 104.066 39.4227 104.985 43.2644 102.492C44.774 101.515 45.9154 100.101 47.4374 99.1592C48.3824 98.5846 49.4502 98.2169 50.5671 98.056V98.3778C51.1931 98.1709 51.8435 98.0445 52.494 97.9985C53.1445 98.056 53.7828 98.1709 54.4087 98.3778V98.056C55.5379 98.2169 56.618 98.5731 57.5507 99.1592C59.0849 100.101 60.2264 101.515 61.7237 102.492C65.5653 104.985 71.0393 104.066 74.8073 101.48C78.5753 98.8949 81.03 94.9992 83.3374 91.207C91.1556 78.371 98.7898 65.1098 101.785 50.596C104.779 36.0823 102.509 19.9252 92.2848 8.67498H92.2971Z" fill="white"/>
<path d="M93.6961 7.36485C91.2046 4.66435 88.2099 2.23964 84.4542 1.28584C80.6985 0.332045 76.5255 0.952587 72.8802 2.32008C71.0515 3.00957 69.2964 3.83696 67.6026 4.77926C66.2648 5.52621 64.6447 7.05458 63.0614 7.14651C61.7972 7.22695 60.484 6.59492 59.3548 6.15824C58.0293 5.65262 56.7283 5.14699 55.3046 4.96313C54.4577 4.84821 53.5863 4.79075 52.7271 4.96313C51.7698 5.15848 53.2181 5.14699 52.2484 4.96313C51.9784 4.90567 51.6348 4.87119 51.3402 4.8597C49.7446 4.77926 48.1859 5.20445 46.7131 5.74455C45.4366 6.2157 44.1479 6.84773 42.7733 7.07756C41.1164 7.35336 40.0731 6.36509 38.7476 5.57218C32.2426 1.67655 23.8598 -1.32273 16.6552 2.88316C10.5553 6.44553 6.39456 13.0646 3.79257 19.1666C1.09239 25.487 -0.0490438 32.3934 5.03183e-05 39.1734C0.110512 54.503 6.54184 68.9824 14.1023 82.3125C16.2993 86.1737 18.5699 90.0004 20.9264 93.7811C23.0743 97.217 25.5167 100.55 28.9656 102.951C32.1935 105.192 36.4401 106.318 40.429 105.583C42.5033 105.204 44.2584 104.227 45.8294 102.928C47.5109 101.538 48.7873 100.251 51.0947 99.8601L48.5787 98.0674V98.3892C48.6523 99.5498 49.8306 100.573 51.107 100.182C52.1503 99.8716 52.813 99.8716 53.8685 100.182C55.1573 100.561 56.3232 99.5498 56.3846 98.3892V98.0674C55.5623 98.6649 54.7277 99.2625 53.8808 99.8601C56.1882 100.251 57.4647 101.538 59.1462 102.928C60.8276 104.319 62.6073 105.273 64.7674 105.617C68.9036 106.284 73.1257 105.031 76.4027 102.664C79.9252 100.101 82.3554 96.539 84.5524 92.9652C86.9948 88.9891 89.3881 84.99 91.6587 80.9221C100.127 65.7533 106.866 48.9182 104.497 31.52C103.294 22.6601 99.8574 14.2368 93.6839 7.36485C92.0392 5.52621 89.2408 8.16926 90.8732 9.99641C101.085 21.373 102.766 37.5416 99.5261 51.6417C97.6482 59.8121 94.3221 67.6034 90.3823 75.0844C88.3203 79.003 86.0988 82.8296 83.8159 86.6333C81.7908 90.0004 79.8761 93.5627 77.2987 96.608C74.7213 99.6532 70.8919 102.354 66.4366 102.089C64.0801 101.952 62.5214 100.791 60.8645 99.3429C59.2075 97.895 57.3051 96.6769 54.9363 96.2747C53.6353 96.0564 52.4816 96.7803 52.4203 98.0674V98.3892C53.2426 97.7916 54.0772 97.194 54.9241 96.5965C53.2426 96.0909 51.7207 96.0909 50.0515 96.5965L52.5676 98.3892V98.0674C52.4939 96.7803 51.3402 96.0564 50.0392 96.2747C48.3086 96.562 46.799 97.24 45.4244 98.2627C44.0497 99.2855 42.8837 100.699 41.2636 101.434C38.2934 102.79 34.6237 101.952 31.948 100.366C29.0024 98.6305 26.9159 95.838 25.1362 93.1031C23.1602 90.0923 21.3437 86.9781 19.5272 83.8754C12.2122 71.4301 5.41267 58.0309 4.17305 43.678C3.11753 31.3591 5.97726 17.7532 15.4279 8.60594C17.9071 6.20421 20.8896 4.49197 24.5471 4.51496C28.2046 4.53794 31.9358 6.10079 35.1269 7.85899C38.0357 9.45631 40.2449 11.3639 43.8288 10.6629C46.2835 10.1803 48.7505 8.30716 51.3279 8.58295C52.8253 8.74383 54.2245 8.43356 55.7219 8.84726C57.2192 9.26095 58.4834 9.88149 59.8948 10.3297C61.3063 10.7778 62.8037 11.0192 64.2765 10.7319C66.1052 10.3756 67.5781 9.13455 69.1368 8.2497C72.6593 6.23868 76.685 4.38855 80.9194 4.51496C85.1538 4.64136 88.259 7.14651 90.8732 9.98492C92.5424 11.8006 95.3531 9.15753 93.6839 7.35336L93.6961 7.36485Z" fill="#27D9E8"/>
<path d="M47.8789 52.0094C48.2594 51.1882 48.7994 50.7347 49.6463 50.318C50.4441 49.9258 51.5241 49.7175 52.4692 49.6929C53.4142 49.6684 54.4575 49.8278 55.2553 50.1709C56.1758 50.5754 56.7281 51.0412 57.1209 51.8869C57.354 52.3894 58.0659 52.5119 58.52 52.2545C59.0355 51.9604 59.1214 51.3598 58.8882 50.8573C57.7836 48.5041 54.8993 47.6093 52.4692 47.6461C50.039 47.6829 47.2038 48.6266 46.1115 50.9676C45.8783 51.4701 45.9765 52.0707 46.4797 52.3649C46.9216 52.6222 47.6457 52.4997 47.8789 51.9972V52.0094Z" fill="#27D9E8"/>
<path d="M42.8591 40.133C42.8591 42.6578 40.8094 44.7046 38.2811 44.7046C35.7527 44.7046 33.7153 42.6578 33.7153 40.133C33.7153 37.6081 35.765 35.5613 38.2811 35.5613C40.7972 35.5613 42.8591 37.6081 42.8591 40.133Z" fill="#27D9E8"/>
<path d="M66.7066 44.6923C69.2282 44.6923 71.2724 42.651 71.2724 40.1329C71.2724 37.6148 69.2282 35.5735 66.7066 35.5735C64.185 35.5735 62.1409 37.6148 62.1409 40.1329C62.1409 42.651 64.185 44.6923 66.7066 44.6923Z" fill="#27D9E8"/>
<path d="M61.1959 28.5259C65.6389 30.536 70.3887 31.6881 75.2613 31.9087C76.5378 31.97 76.5378 29.9844 75.2613 29.9231C70.7569 29.727 66.3139 28.673 62.2023 26.81C61.7113 26.5894 61.1345 26.6752 60.8399 27.1654C60.5822 27.5944 60.7049 28.3053 61.1959 28.5259Z" fill="#27D9E8"/>
<path fill-rule="evenodd" clip-rule="evenodd" d="M26.7911 65.0144C29.9092 63.8238 33.0858 66.0112 36.1255 67.3895C39.5198 68.9288 44.0589 69.7384 45.1003 73.317C46.1402 76.8903 42.1928 79.705 40.7017 83.1148C38.9426 87.1372 39.9808 93.7019 35.721 94.7642C31.4159 95.8377 30.0526 93.4651 26.7911 90.4569C24.7437 88.5685 21.2336 83.3886 20.4802 80.7071C19.7386 78.0682 20.6891 75.4364 21.7118 72.8932C22.9238 69.8794 23.7565 66.1731 26.7911 65.0144Z" fill="#FBFBC4"/>
<path fill-rule="evenodd" clip-rule="evenodd" d="M84.0278 26.2964C87.3958 26.6418 91.5967 29.4905 93.7794 26.9024C95.8671 24.4268 92.2593 20.9691 91.0562 17.9625C90.1253 15.6362 89.592 13.1674 87.6498 11.5844C85.395 9.74664 82.2171 7.20699 79.7495 8.74715C77.1514 10.3688 78.9608 14.4788 78.2423 17.456C77.8924 18.9061 76.4936 19.9872 76.6798 21.4673C76.8832 23.0846 77.8808 24.5163 79.243 25.4115C80.6521 26.3376 82.3505 26.1244 84.0278 26.2964Z" fill="#FBFBC4"/>
</g>
<defs>
<clipPath id="clip0_20_2324">
<rect width="105" height="112" fill="white" transform="translate(0 0.801758)"/>
</clipPath>
</defs>
</svg>
