<svg width="272" height="74" viewBox="0 0 272 74" fill="none" xmlns="http://www.w3.org/2000/svg">
<path d="M77.541 64.701C74.1465 64.701 71.868 62.3295 71.868 58.7955C71.868 55.277 74.2085 52.9055 77.5875 52.9055C78.9825 52.9055 79.9745 53.2155 80.9355 53.8045L80.9665 56.2845H80.269L79.742 53.5875L80.5325 53.8975V54.471C79.6335 53.7425 78.874 53.448 77.758 53.448C75.1695 53.448 73.3405 55.4165 73.3405 58.811C73.3405 62.097 75.092 64.1585 77.6805 64.1585C78.6725 64.1585 79.4785 63.926 80.3465 63.4455L79.835 63.895V62.8875C79.835 61.5855 79.804 60.3455 79.773 59.0435H81.1835C81.1525 60.2215 81.137 61.415 81.137 62.903V63.6935C79.928 64.391 78.8895 64.701 77.541 64.701ZM77.9595 59.5085V59.0435H82.284V59.5085L80.61 59.679H80.114L77.9595 59.5085ZM88.2511 64.701C85.5231 64.701 83.1981 62.531 83.1981 58.811C83.1981 55.122 85.5231 52.9055 88.2511 52.9055C91.0101 52.9055 93.3351 55.0755 93.3351 58.811C93.3351 62.5 91.0101 64.701 88.2511 64.701ZM88.2511 64.1585C90.6226 64.1585 91.8626 61.725 91.8626 58.811C91.8626 55.897 90.6226 53.448 88.2511 53.448C85.8951 53.448 84.6551 55.897 84.6551 58.811C84.6551 61.725 85.8951 64.1585 88.2511 64.1585ZM96.416 64.4375V63.9725L98.6945 63.7865H99.082L101.376 63.9725V64.4375H96.416ZM98.183 64.4375C98.2295 62.7325 98.2295 60.981 98.2295 59.2295V58.377C98.2295 56.6255 98.2295 54.8895 98.183 53.1535H99.6245C99.5935 54.874 99.5935 56.6255 99.5935 58.377V59.2295C99.5935 60.981 99.5935 62.717 99.6245 64.4375H98.183ZM94.1375 56.0985L94.2615 53.1535H103.546L103.686 56.0985H103.019L102.461 53.1535L103.097 53.7115H94.6955L95.362 53.1535L94.7885 56.0985H94.1375ZM102.86 64.4375V63.9725L104.395 63.802H104.658L106.332 63.9725V64.4375H102.86ZM103.992 64.4375L107.774 53.0605H108.642L112.486 64.4375H111.091L107.665 53.9905H107.991L107.929 54.2075L104.643 64.4375H103.992ZM105.666 60.5935L105.712 60.0975H110.44L110.486 60.5935H105.666ZM109.169 64.4375V63.9725L111.23 63.802H111.68L113.71 63.9725V64.4375H109.169ZM114.157 64.4375V63.9725L115.8 63.7865H116.125L118.125 63.9725V64.4375H114.157ZM115.645 64.4375V53.5255H116.187L116.249 59.493V64.4375H115.645ZM121.225 53.634V53.1535H125.193V53.634L123.565 53.8045H123.24L121.225 53.634ZM123.023 64.546L116.048 54.316L116.017 54.285L115.645 53.727L114.126 53.634V53.1535H116.869L123.41 62.8565L123.131 62.9495L123.116 58.315V53.1535H123.689V64.546H123.023ZM126.232 64.4375V63.9725L128.371 63.7865H128.557V64.4375H126.232ZM127.828 64.4375C127.859 62.7325 127.859 60.981 127.859 58.904V58.47C127.859 56.6255 127.859 54.8895 127.828 53.1535H129.27C129.239 54.874 129.239 56.6255 129.239 58.47V58.904C129.239 60.981 129.239 62.717 129.27 64.4375H127.828ZM128.557 64.4375V63.926H130.525C133.486 63.926 135.02 61.9885 135.02 58.811C135.02 55.463 133.47 53.6805 130.68 53.6805H128.557V53.1535H130.882C134.369 53.1535 136.477 55.215 136.477 58.7955C136.477 62.283 134.276 64.4375 130.649 64.4375H128.557ZM126.232 53.634V53.1535H128.557V53.8045H128.371L126.232 53.634ZM136.442 64.4375V63.9725L137.976 63.802H138.24L139.914 63.9725V64.4375H136.442ZM137.573 64.4375L141.355 53.0605H142.223L146.067 64.4375H144.672L141.247 53.9905H141.572L141.51 54.2075L138.224 64.4375H137.573ZM139.247 60.5935L139.294 60.0975H144.021L144.068 60.5935H139.247ZM142.75 64.4375V63.9725L144.812 63.802H145.261L147.292 63.9725V64.4375H142.75ZM151.859 64.4375V63.9725L153.998 63.7865H154.184V64.4375H151.859ZM153.455 64.4375C153.486 62.7325 153.486 60.981 153.486 58.904V58.47C153.486 56.6255 153.486 54.8895 153.455 53.1535H154.897C154.866 54.874 154.866 56.6255 154.866 58.47V58.904C154.866 60.981 154.866 62.717 154.897 64.4375H153.455ZM154.184 64.4375V63.926H156.152C159.113 63.926 160.647 61.9885 160.647 58.811C160.647 55.463 159.097 53.6805 156.307 53.6805H154.184V53.1535H156.509C159.996 53.1535 162.104 55.215 162.104 58.7955C162.104 62.283 159.903 64.4375 156.276 64.4375H154.184ZM151.859 53.634V53.1535H154.184V53.8045H153.998L151.859 53.634ZM163.143 64.4375V63.9725L165.282 63.7865H165.468V64.4375H163.143ZM164.74 64.4375C164.771 62.7325 164.771 60.981 164.771 59.2295V58.377C164.771 56.6255 164.771 54.8895 164.74 53.1535H166.181C166.15 54.874 166.15 56.6255 166.15 58.563V58.904C166.15 60.981 166.15 62.717 166.181 64.4375H164.74ZM165.468 64.4375V63.9105H171.265L170.583 64.3135L171.095 61.6165H171.761L171.653 64.4375H165.468ZM165.468 58.9815V58.4545H169.188V58.9815H165.468ZM169.08 60.5625L168.878 58.842V58.5165L169.08 56.8425H169.622V60.5625H169.08ZM163.143 53.634V53.1535H165.468V53.8045H165.282L163.143 53.634ZM170.816 55.9435L170.304 53.2775L171.002 53.7115H165.468V53.1535H171.374L171.482 55.9435H170.816ZM172.821 64.4375V63.9725L174.464 63.7865H174.789L176.789 63.9725V64.4375H172.821ZM174.309 64.4375V53.5255H174.851L174.913 59.493V64.4375H174.309ZM179.889 53.634V53.1535H183.857V53.634L182.229 53.8045H181.904L179.889 53.634ZM181.687 64.546L174.712 54.316L174.681 54.285L174.309 53.727L172.79 53.634V53.1535H175.533L182.074 62.8565L181.795 62.9495L181.78 58.315V53.1535H182.353V64.546H181.687ZM186.785 64.4375V63.9725L189.063 63.7865H189.451L191.745 63.9725V64.4375H186.785ZM188.552 64.4375C188.598 62.7325 188.598 60.981 188.598 59.2295V58.377C188.598 56.6255 188.598 54.8895 188.552 53.1535H189.993C189.962 54.874 189.962 56.6255 189.962 58.377V59.2295C189.962 60.981 189.962 62.717 189.993 64.4375H188.552ZM184.506 56.0985L184.63 53.1535H193.915L194.054 56.0985H193.388L192.83 53.1535L193.465 53.7115H185.064L185.731 53.1535L185.157 56.0985H184.506ZM193.229 64.4375V63.9725L194.763 63.802H195.027L196.701 63.9725V64.4375H193.229ZM194.36 64.4375L198.142 53.0605H199.01L202.854 64.4375H201.459L198.034 53.9905H198.359L198.297 54.2075L195.011 64.4375H194.36ZM196.034 60.5935L196.081 60.0975H200.808L200.855 60.5935H196.034ZM199.537 64.4375V63.9725L201.599 63.802H202.048L204.079 63.9725V64.4375H199.537ZM204.559 64.4375L204.574 63.9725L206.698 63.7865H206.884V64.4375H204.559ZM206.155 64.4375C206.186 62.7325 206.186 60.981 206.186 59.3535V58.377C206.186 56.6255 206.186 54.874 206.155 53.1535H207.597C207.566 54.8895 207.566 56.6255 207.566 58.594V59.493C207.566 60.981 207.566 62.717 207.597 64.4375H206.155ZM206.884 64.4375V63.9105H212.293L211.658 64.298L212.2 61.4305H212.867L212.758 64.4375H206.884ZM204.559 53.634V53.1535H209.24V53.634L207.054 53.8045H206.698L204.559 53.634ZM223.637 64.701C220.289 64.701 217.964 62.469 217.964 58.8265C217.964 55.1995 220.397 52.9055 223.637 52.9055C224.892 52.9055 225.838 53.169 226.845 53.758L226.876 56.2535H226.179L225.667 53.5565L226.442 53.82V54.3625C225.574 53.7115 224.83 53.448 223.838 53.448C221.265 53.448 219.436 55.37 219.436 58.811C219.436 62.2675 221.265 64.1585 223.776 64.1585C224.768 64.1585 225.652 63.9105 226.535 63.2595V63.771L225.776 63.988L226.303 61.353H227L226.969 63.833C225.931 64.453 224.892 64.701 223.637 64.701ZM228.309 64.4375L228.324 63.9725L230.448 63.7865H230.634V64.4375H228.309ZM229.905 64.4375C229.936 62.7325 229.936 60.981 229.936 59.3535V58.377C229.936 56.6255 229.936 54.874 229.905 53.1535H231.347C231.316 54.8895 231.316 56.6255 231.316 58.594V59.493C231.316 60.981 231.316 62.717 231.347 64.4375H229.905ZM230.634 64.4375V63.9105H236.043L235.408 64.298L235.95 61.4305H236.617L236.508 64.4375H230.634ZM228.309 53.634V53.1535H232.99V53.634L230.804 53.8045H230.448L228.309 53.634ZM237.52 64.4375V63.9725L239.659 63.7865H240L242.154 63.9725V64.4375H237.52ZM239.116 64.4375C239.147 62.7325 239.147 60.981 239.147 59.2295V58.377C239.147 56.6255 239.147 54.8895 239.116 53.1535H240.558C240.527 54.874 240.527 56.6255 240.527 58.377V59.2295C240.527 60.981 240.527 62.717 240.558 64.4375H239.116ZM237.52 53.634V53.1535H242.154V53.634L240 53.8045H239.659L237.52 53.634ZM243.368 64.4375V63.9725L245.011 63.7865H245.336L247.336 63.9725V64.4375H243.368ZM244.856 64.4375V53.5255H245.398L245.46 59.493V64.4375H244.856ZM250.436 53.634V53.1535H254.404V53.634L252.776 53.8045H252.451L250.436 53.634ZM252.234 64.546L245.259 54.316L245.228 54.285L244.856 53.727L243.337 53.634V53.1535H246.08L252.621 62.8565L252.342 62.9495L252.327 58.315V53.1535H252.9V64.546H252.234ZM255.442 64.4375V63.9725L257.581 63.7865H257.922L260.077 63.9725V64.4375H255.442ZM257.039 64.4375C257.07 62.7325 257.07 60.981 257.07 59.2295V58.377C257.07 56.6255 257.07 54.8895 257.039 53.1535H258.48C258.449 54.874 258.449 56.6255 258.449 58.377V59.2295C258.449 60.981 258.449 62.717 258.48 64.4375H257.039ZM255.442 53.634V53.1535H260.077V53.634L257.922 53.8045H257.581L255.442 53.634ZM266.877 64.701C263.529 64.701 261.204 62.469 261.204 58.8265C261.204 55.1995 263.637 52.9055 266.877 52.9055C268.132 52.9055 269.078 53.169 270.085 53.758L270.116 56.2535H269.419L268.907 53.5565L269.682 53.82V54.3625C268.814 53.7115 268.07 53.448 267.078 53.448C264.505 53.448 262.676 55.37 262.676 58.811C262.676 62.2675 264.505 64.1585 267.016 64.1585C268.008 64.1585 268.892 63.9105 269.775 63.2595V63.771L269.016 63.988L269.543 61.353H270.24L270.209 63.833C269.171 64.453 268.132 64.701 266.877 64.701Z" fill="#333333"/>
<path d="M71.581 13.149H89.996L91.968 10.481C91.968 10.481 94.23 12.279 95.535 13.526C95.477 13.845 95.158 13.99 94.723 13.99H71.813L71.581 13.149ZM69.812 33.971H91.939L93.853 31.187C93.853 31.187 96.057 33.101 97.275 34.348C97.188 34.667 96.898 34.812 96.463 34.812H70.044L69.812 33.971ZM80.484 13.149H84.051C82.978 19.036 80.89 28.867 79.469 34.319H75.902C77.381 28.78 79.469 18.891 80.484 13.149ZM72.973 21.82H89.648V22.661H73.234L72.973 21.82ZM87.531 21.82H87.241L88.894 20.051L92.171 22.574C91.968 22.806 91.591 23.038 90.982 23.183V34.406H87.531V21.82ZM108.846 19.123C111.079 28.055 118.01 31.477 126.594 33.014L126.536 33.333C124.912 33.652 123.781 34.754 123.23 36.465C115.226 33.971 110.238 29.621 108.411 19.355L108.846 19.123ZM104.003 12.424H119.779L121.722 9.959C121.722 9.959 123.926 11.612 125.26 12.772C125.173 13.091 124.854 13.236 124.419 13.236H104.003V12.424ZM103.017 12.424V12.134V10.8L106.99 12.424H106.468V19.355C106.468 24.749 105.946 31.999 99.073 36.552L98.783 36.32C102.553 31.332 103.017 25.068 103.017 19.355V12.424ZM118.416 19.123H118.039L120.127 17.122L123.491 20.196C123.259 20.544 122.969 20.631 122.215 20.718C119.402 28.49 113.863 34.203 102.582 36.407L102.408 36.059C111.253 32.898 116.473 26.866 118.416 19.123ZM104.206 19.123H119.808V19.964H104.206V19.123ZM139.673 12.685H143.037V33.101H139.673V12.685ZM130.016 12.54V11.061L133.67 12.54H150.693V13.381H133.38V34.812C133.38 35.218 132.046 36.059 130.567 36.059H130.016V12.54ZM149.591 12.54H149.301L150.954 10.713L154.231 13.323C154.028 13.584 153.622 13.787 153.042 13.932V34.725C153.013 34.986 151.389 35.769 150.113 35.769H149.591V12.54ZM132.017 22.4H150.867V23.212H132.017V22.4ZM132.017 32.608H150.867V33.42H132.017V32.608ZM162.902 24.343H174.299L175.749 22.545C175.749 22.545 177.431 23.792 178.475 24.691C178.417 25.01 178.098 25.155 177.692 25.155H163.134L162.902 24.343ZM170.703 12.743H176.242L178.04 10.51C178.04 10.51 180.07 12.018 181.317 13.091C181.23 13.41 180.94 13.555 180.534 13.555H170.703V12.743ZM171.863 25.996C179.867 27.156 178.185 32.637 175.401 31.013C174.821 29.36 173.023 27.359 171.602 26.199L171.863 25.996ZM164.294 19.094C170.094 20.921 167.368 25.068 165.251 23.125C165.251 21.82 164.613 20.254 164.004 19.268L164.294 19.094ZM156.899 16.658H178.649L180.592 14.251C180.592 14.251 182.796 15.875 184.159 17.035C184.072 17.354 183.724 17.499 183.318 17.499H157.131L156.899 16.658ZM160.93 33.565H180.128V34.406H160.93V33.565ZM159.016 18.862L163.192 19.268C163.134 19.616 162.931 19.906 162.206 20.022V35.595C162.206 35.914 160.814 36.552 159.625 36.552H159.016V18.862ZM178.794 18.891L183.115 19.297C183.057 19.703 182.825 19.993 182.042 20.109V35.595C182.042 35.885 180.65 36.552 179.403 36.552H178.794V18.891ZM168.963 9.408L173.4 9.785C173.342 10.162 173.11 10.452 172.385 10.568V17.151H168.963V9.408ZM161.771 10.829L165.889 11.177C165.831 11.554 165.628 11.815 164.932 11.902V17.093H161.771V10.829ZM168.876 18.311L172.936 18.717C172.878 19.123 172.617 19.413 171.863 19.529V31.912C171.863 32.173 170.558 32.724 169.427 32.724H168.876V18.311ZM167.832 24.401H171.515C169.862 27.765 166.44 30.433 162.902 31.999L162.67 31.651C164.99 29.795 167.049 26.895 167.832 24.401ZM174.415 18.862L177.837 20.341C177.75 20.631 177.489 20.776 176.764 20.689C175.923 21.472 174.125 22.806 173.023 23.676L172.733 23.415C173.284 22.11 174.038 19.993 174.415 18.862ZM205.996 10.104L210.375 10.539C210.288 10.945 210.085 11.264 209.302 11.38V35.363C209.302 35.711 207.881 36.494 206.634 36.494H205.996V10.104ZM199.239 12.424C207.359 13.613 204.72 19.587 201.733 17.412C201.472 15.73 200.254 13.816 199.007 12.656L199.239 12.424ZM198.688 19.616C206.895 20.486 204.314 26.518 201.269 24.43C200.95 22.777 199.674 20.921 198.456 19.819L198.688 19.616ZM186.131 18.485H194.483L196.049 16.252C196.049 16.252 197.818 17.789 198.833 18.833C198.775 19.152 198.456 19.297 198.05 19.297H186.363L186.131 18.485ZM194.802 9.466L198.543 12.714C198.224 13.004 197.586 13.091 196.658 12.772C194.019 13.497 189.785 14.193 186.044 14.367L185.957 14.019C189.118 12.917 192.917 10.916 194.802 9.466ZM190.481 18.601H193.961V19.065C192.598 23.908 189.756 27.968 185.841 31.013L185.522 30.694C187.929 27.475 189.611 22.806 190.481 18.601ZM190.713 13.41L194.048 12.076V35.653C194.019 35.856 192.946 36.61 191.322 36.61H190.713V13.41ZM193.816 20.834C200.863 23.038 198.166 27.968 195.643 25.88C195.44 24.227 194.396 22.313 193.555 21.008L193.816 20.834ZM196.368 28.809L209.534 26.315L210.926 23.618C210.926 23.618 212.666 24.952 213.71 25.88C213.71 26.17 213.449 26.402 213.101 26.46L196.745 29.563L196.368 28.809ZM224.962 17.151H234.358L236.156 14.918C236.156 14.918 238.157 16.368 239.433 17.499C239.346 17.818 239.027 17.963 238.621 17.963H224.527L224.962 17.151ZM221.163 22.255H235.779L237.635 19.935C237.635 19.935 239.723 21.53 240.97 22.632C240.883 22.951 240.593 23.096 240.158 23.096H221.395L221.163 22.255ZM225.629 12.888L229.921 14.338C229.805 14.715 229.428 14.947 228.761 14.889C226.992 18.079 224.498 20.225 221.83 21.559L221.54 21.269C223.164 19.326 224.817 16.194 225.629 12.888ZM230.646 24.749C241.405 25.851 239.897 33.014 236.272 31.245C235.199 29.012 232.589 26.46 230.443 24.981L230.646 24.749ZM228.616 17.238H232.183C232.009 24.923 231.922 29.418 221.25 32.086L220.989 31.68C228.906 28.49 228.587 24.169 228.616 17.238ZM216.697 11.699V10.249L220.583 11.699H220.177V35.798C220.177 36.03 219.104 36.726 217.335 36.726H216.697V11.699ZM219.017 11.699H235.837L237.722 9.408C237.722 9.408 239.868 10.945 241.202 12.047C241.115 12.366 240.825 12.511 240.39 12.511H219.017V11.699ZM218.959 33.652H236.649L238.679 31.129C238.679 31.129 240.941 32.84 242.333 34.029C242.246 34.348 241.927 34.493 241.492 34.493H218.959V33.652ZM255.296 13.642H268.114V14.454H255.296V13.642ZM259.791 9.466L264.054 9.814C264.025 10.191 263.793 10.452 263.097 10.568V14.048H259.791V9.466ZM267.215 13.642H266.896L268.549 11.96L271.449 14.715C271.217 14.976 270.927 15.034 270.318 15.063C269.448 15.701 267.911 16.629 266.838 17.122L266.548 16.948C266.78 16.078 267.099 14.512 267.215 13.642ZM254.6 18.543H264.46L266.084 16.397C266.084 16.397 267.94 17.876 269.071 18.891C268.984 19.21 268.665 19.355 268.259 19.355H254.832L254.6 18.543ZM253.324 22.951H266.432L268.114 20.66C268.114 20.66 270.028 22.226 271.159 23.299C271.101 23.618 270.782 23.763 270.376 23.763H253.556L253.324 22.951ZM245.001 11.496V10.162L248.51 11.496H248.104V35.624C248.104 35.856 247.147 36.639 245.581 36.639H245.001V11.496ZM246.538 11.496H251.99V12.308H246.538V11.496ZM250.453 11.496H250.105L251.758 9.872L254.832 12.743C254.629 13.033 254.223 13.12 253.556 13.149C252.657 14.86 251.062 17.818 249.728 19.558C252.396 21.472 253.556 24.14 253.556 26.402C253.556 29.186 252.599 30.752 249.641 30.81C249.641 29.969 249.525 28.751 249.293 28.374C249.09 28.084 248.713 27.823 248.162 27.678V27.33C248.568 27.33 249.235 27.33 249.496 27.33C249.786 27.33 249.931 27.301 250.105 27.156C250.424 26.953 250.598 26.431 250.598 25.59C250.598 23.618 250.192 21.472 249.003 19.616C249.525 17.557 250.192 13.613 250.453 11.496ZM255.296 11.583H255.731C257.007 14.599 256.485 16.861 255.383 17.76C254.6 18.369 253.295 18.224 252.86 17.238C252.512 16.31 253.034 15.498 253.875 15.034C254.629 14.454 255.441 12.975 255.296 11.583ZM262.372 23.183H265.533C265.533 23.531 265.533 23.937 265.533 24.169V32.289C265.533 32.637 265.62 32.753 266.142 32.753H267.331C267.824 32.753 268.23 32.753 268.433 32.753C268.694 32.753 268.781 32.695 268.955 32.405C269.216 31.912 269.651 30.317 270.086 28.606H270.434L270.521 32.579C271.275 32.927 271.42 33.333 271.42 33.913C271.42 35.16 270.405 35.856 267.012 35.856H265.156C262.778 35.856 262.372 35.218 262.372 33.159V23.183ZM256.891 23.212H260.342C260.081 30.201 257.935 34.435 250.018 36.581L249.873 36.204C255.76 33.217 256.833 29.186 256.891 23.212Z" fill="#111111"/>
<g clip-path="url(#clip0_20_2403)">
<path d="M45.4358 18.018C42.4451 14.4419 38.5864 12.2205 35.3809 12.2205C32.9832 12.2205 30.4223 13.7484 28.1793 16.5117C27.3972 17.4762 26.28 18.0288 25.1027 18.0288C23.9253 18.0288 22.7995 17.4762 22.0261 16.5117C19.7831 13.7484 17.2307 12.2205 14.8244 12.2205C11.6103 12.2205 7.76025 14.4419 4.76959 18.018C1.35782 22.0925 -0.352357 27.1206 0.060148 31.8237C0.567186 37.567 3.40316 47.2548 7.10712 55.924C8.9548 60.2369 10.8369 63.8888 12.5642 66.5004C14.9705 70.1306 16.526 70.8892 17.4112 70.8892C17.7807 70.8892 18.1245 70.7591 18.4338 70.5099C19.3276 69.7622 20.2729 68.0934 21.33 65.3951C21.9745 63.7479 23.4612 62.6751 25.1027 62.6751C26.7441 62.6751 28.2394 63.7479 28.8754 65.3951C29.9238 68.0934 30.8692 69.773 31.7715 70.5099C32.0809 70.7591 32.4246 70.8892 32.7942 70.8892C33.6793 70.8892 35.2348 70.1306 37.6411 66.5004C39.3685 63.8997 41.2505 60.2369 43.0982 55.924C46.8022 47.2548 49.6382 37.567 50.1452 31.8237C50.5577 27.1206 48.8475 22.0925 45.4358 18.0288V18.018ZM47.2577 31.5202C46.785 36.8626 43.992 46.3445 40.4685 54.5911C38.6982 58.7306 36.9106 62.2092 35.2864 64.6474C34.2551 66.197 33.5161 66.9881 33.0692 67.389C32.734 66.858 32.227 65.8827 31.5481 64.1489C30.4481 61.3314 27.9215 59.5109 25.1027 59.5109C22.2839 59.5109 19.7573 61.3314 18.6573 64.1489C17.9784 65.8827 17.4713 66.858 17.1362 67.389C16.6893 66.9881 15.9416 66.197 14.9189 64.6474C13.2947 62.1983 11.5072 58.7198 9.73684 54.5911C6.21336 46.3445 3.42035 36.8626 2.94769 31.5202C2.61253 27.7058 4.0563 23.5554 6.91805 20.1419C9.34152 17.2486 12.4439 15.3739 14.833 15.3739C16.3627 15.3739 18.1932 16.5442 19.8604 18.6031C21.1925 20.2395 23.1003 21.1822 25.1113 21.1822C27.1222 21.1822 29.0387 20.2395 30.3621 18.6031C32.0207 16.5551 33.8512 15.3739 35.3895 15.3739C37.77 15.3739 40.881 17.2486 43.3045 20.1419C46.1662 23.5554 47.61 27.7058 47.2748 31.5202H47.2577Z" fill="#EDB0BF"/>
<path d="M53.2305 18.018C50.2398 14.4419 46.3811 12.2205 43.1756 12.2205C40.7779 12.2205 38.217 13.7484 35.974 16.5117C35.1919 17.4762 34.0747 18.0288 32.8974 18.0288C31.72 18.0288 30.5942 17.4762 29.8208 16.5117C27.5778 13.7484 25.0254 12.2205 22.6191 12.2205C19.405 12.2205 15.555 14.4419 12.5643 18.018C9.16111 22.0925 7.44234 27.1206 7.85485 31.8128C8.36188 37.5562 11.1979 47.244 14.9018 55.9132C16.7495 60.2261 18.6316 63.878 20.3589 66.4896C22.7652 70.1198 24.3207 70.8783 25.2059 70.8783C25.5754 70.8783 25.9192 70.7483 26.2285 70.4991C27.1223 69.7514 28.0676 68.0825 29.1247 65.3843C29.7692 63.7371 31.2559 62.6643 32.8974 62.6643C34.5388 62.6643 36.0341 63.7371 36.6701 65.3843C37.7185 68.0825 38.6639 69.7622 39.5662 70.4991C39.8756 70.7483 40.2193 70.8783 40.5889 70.8783C41.474 70.8783 43.0295 70.1198 45.4358 66.4896C47.1632 63.8888 49.0452 60.2261 50.8929 55.9132C54.5969 47.244 57.4329 37.5562 57.9399 31.8128C58.3524 27.1098 56.6422 22.0817 53.2305 18.018ZM55.0524 31.5202C54.5797 36.8626 51.7867 46.3445 48.2632 54.5911C46.4929 58.7306 44.7053 62.2092 43.0811 64.6474C42.0498 66.197 41.3108 66.9881 40.8639 67.389C40.5287 66.858 40.0217 65.8827 39.3428 64.1489C38.2428 61.3314 35.7162 59.5109 32.8974 59.5109C30.0786 59.5109 27.552 61.3314 26.452 64.1489C25.7731 65.8827 25.266 66.858 24.9309 67.389C24.484 66.9881 23.7363 66.197 22.7136 64.6474C21.0894 62.1983 19.3019 58.7198 17.5315 54.5911C14.0081 46.3445 11.215 36.8626 10.7424 31.5202C10.4072 27.7058 11.851 23.5554 14.7128 20.1419C17.1362 17.2486 20.2386 15.3739 22.6277 15.3739C24.1574 15.3739 25.9879 16.5442 27.6551 18.6031C28.9872 20.2395 30.895 21.1822 32.906 21.1822C34.9169 21.1822 36.8334 20.2395 38.1568 18.6031C39.8154 16.5551 41.6459 15.3739 43.1842 15.3739C45.5647 15.3739 48.6757 17.2486 51.0992 20.1419C53.9609 23.5554 55.4047 27.7058 55.0695 31.5202H55.0524Z" fill="#C0E5E8"/>
</g>
<defs>
<clipPath id="clip0_20_2403">
<rect width="58" height="58.6579" fill="white" transform="translate(0 12.2205)"/>
</clipPath>
</defs>
</svg>
